<?xml version="1.0" standalone="no"?>
<!DOCTYPE svg PUBLIC "-//W3C//DTD SVG 20010904//EN"
 "http://www.w3.org/TR/2001/REC-SVG-20010904/DTD/svg10.dtd">
<svg version="1.0" xmlns="http://www.w3.org/2000/svg"
 width="700.000000pt" height="700.000000pt" viewBox="0 0 700.000000 700.000000"
 preserveAspectRatio="xMidYMid meet">
<metadata>
Created by potrace 1.11, written by Peter Selinger 2001-2013
</metadata>
<g transform="translate(0.000000,700.000000) scale(0.100000,-0.100000)"
fill="#000000" stroke="none">
<path d="M4738 4855 c-297 -41 -543 -156 -745 -349 -272 -260 -405 -600 -420
-1067 -12 -365 36 -626 163 -884 201 -411 582 -656 1090 -705 262 -24 493 0
721 75 366 122 603 356 727 719 15 43 25 81 22 84 -8 7 -657 191 -677 192 -12
0 -20 -15 -28 -47 -7 -27 -30 -85 -52 -131 -52 -108 -126 -184 -229 -234 -94
-46 -155 -58 -284 -58 -300 0 -504 146 -601 430 -51 151 -60 218 -60 480 0
262 6 313 61 473 69 203 220 353 414 412 30 9 102 19 160 22 302 15 496 -124
576 -415 10 -37 21 -61 28 -58 6 2 155 63 331 134 l320 130 -3 31 c-6 83 -102
270 -197 384 -166 200 -470 343 -825 387 -113 14 -372 11 -492 -5z"/>
<path d="M700 3360 l0 -1470 375 0 375 0 0 535 0 535 232 -2 232 -3 308 -525
c169 -289 309 -528 310 -532 2 -4 193 -10 426 -14 334 -6 422 -5 422 5 0 7
-70 122 -157 254 -474 732 -593 917 -593 924 0 5 32 21 70 36 88 36 200 109
266 173 167 163 244 363 244 636 0 264 -62 434 -220 601 -127 134 -272 216
-473 267 -182 46 -272 50 -1074 50 l-743 0 0 -1470z m1406 879 c116 -16 180
-44 240 -103 69 -70 89 -128 89 -261 0 -201 -74 -301 -260 -350 -48 -12 -124
-15 -392 -15 l-333 0 0 363 c0 200 3 367 7 370 11 11 566 8 649 -4z"/>
</g>
</svg>
