<svg xmlns="http://www.w3.org/2000/svg" viewBox="0 0 127 145"><defs/><path fill="#2F2D27" fill-opacity="0.2" d="M88.37.72c17.98 4.02 32.82 25.93 37.15 47.9l.12.67c4.2 21.92-2.17 43.94-14.4 62.02l-.39.56a100.34 100.34 0 0 1-3.47 4.81l-.81 1.04c-12.08 15.3-28.28 26.5-43.91 26.48-11.63-.07-22.94-6.31-32.69-15.05l-.88-.8a94.79 94.79 0 0 1-3.02-2.91l-.84-.86-.41-.43-.83-.87-1.22-1.33-.8-.9-.79-.9-.78-.9-.76-.92-.38-.46-.76-.93-.74-.93-.72-.93a117.75 117.75 0 0 1-1.53-2.04l-.79-1.1C4.03 96.93-1.9 80.85.55 66.44c1.68-9.52 7-18.28 14.87-26.87l.88-.96a121.5 121.5 0 0 1 3.75-3.8l.99-.96.5-.47 1.01-.95 1.04-.95.52-.48 1.06-.95.54-.47 1.08-.96.55-.47 1.12-.96 1.13-.95.57-.48 1.15-.95.59-.48 1.52-1.23 1.02-.81 1.04-.82 1.05-.81 1.05-.81 1.07-.81 1.07-.8 1.08-.8.55-.4 1.1-.78 1.1-.78 1.1-.77 1.12-.76 1.12-.75 1.13-.74 1.13-.73C62.03 3.56 75.92-2.07 88.37.72z"/></svg>
